<svg width="266" height="943" viewBox="0 0 266 943" fill="none" xmlns="http://www.w3.org/2000/svg">
<path fill-rule="evenodd" clip-rule="evenodd" d="M138.935 11.0359C135.256 10.8859 108.811 10.8053 96.3915 31.3911C86.9775 56.1469 85.4808 94.0283 105.253 109.654C106.723 116.971 106.686 125.275 103.48 130.748C81.9746 149.14 41.5421 142.392 25.0835 155.88C-3.06979 185.663 2.32269 336.615 6.84478 346.732C-9.98607 387.313 14.8164 460.238 15.4969 483.27C21.2617 498.938 13.2728 525.932 37.3035 546.928C35.9153 530.073 34.3077 508.361 32.5373 484.255C30.767 460.148 34.9143 423.081 40.7161 395.908C38.3835 383.777 46.1578 358.864 40.8467 347.605C51.8043 329.9 53.7152 265.504 45.6253 239.226C58.8192 266.6 66.1251 317.455 67.7056 339.301C8.93322 413.837 34.5099 573.318 70.6669 683.331C43.5639 772.17 72.097 838.805 74.0572 888.607C88.2177 895.054 57.9636 929.568 63.5016 934.359C74.1213 945.617 104.447 942.551 110.811 933.866C114.125 927.957 105.665 914.348 107.961 904.701C107.206 895.054 108.113 875.871 108.113 867.836C108.113 859.8 130.356 732.753 117.283 698.641C121.423 687.673 126.872 667.394 121.598 650.159C125.043 634.782 132.383 476.891 130.615 462.431C130.573 462.095 130.931 457.753 130.921 457.104C130.909 457.529 131.182 460.797 131.153 461.021C129.383 475.503 139.973 617.569 134.699 632.969C129.424 650.181 130.559 686.263 134.699 697.231C120.536 716.525 132.926 851.496 132.926 859.509C132.926 867.545 128.362 891.629 127.61 901.276C129.905 910.923 122.523 927.532 125.837 933.463C132.201 942.148 165.756 942.193 176.384 930.934C181.931 926.144 150.588 891.696 164.748 885.25C166.718 835.447 199.684 769.775 191.104 681.921C227.251 571.907 251.735 412.427 198.427 338.898C200.005 317.052 213.838 264.206 216.131 237.838C211.323 263.131 217.511 332.385 228.459 350.09C223.158 361.349 225.574 381.382 223.232 393.536C229.026 416.747 232.01 457.775 230.234 481.882C228.484 505.989 225.846 528.596 224.465 545.45C248.505 524.477 240.418 497.528 246.188 481.882C246.878 458.827 277.206 385.836 260.365 345.277C264.902 335.138 268.034 200.078 247.494 172.278C231.048 151.873 186.246 146.752 164.748 128.36C161.543 122.887 161.506 111.545 162.975 104.228C182.745 88.6026 181.241 56.7267 171.847 31.9709C161.03 14.0553 150.114 11.4992 138.935 11.0359Z" fill="#F0F0F0" stroke="black"/>
<path d="M81.082 458.469C115.952 470.333 133.389 461.446 133.389 443.629C132.299 466.393 160.63 466.393 181.34 460.439" stroke="black"/>
<path fill-rule="evenodd" clip-rule="evenodd" d="M86.2476 120.342C78.0714 102.319 76.9051 48.2481 90.9201 22.8029C107.27 -3.70331 162.157 -7.94268 176.186 20.6832C193.693 56.7291 191.35 105.5 184.348 119.281C169.159 117.161 99.0939 106.559 86.2476 120.342Z" fill="#808080" stroke="black"/>
</svg>
