<svg width="1071" height="1063" viewBox="0 0 1071 1063" fill="none" xmlns="http://www.w3.org/2000/svg">
<path fill-rule="evenodd" clip-rule="evenodd" d="M356.935 66.0359C353.256 65.8859 326.811 65.8053 314.391 86.3911C304.977 111.147 303.481 149.028 323.253 164.654C324.723 171.971 324.686 180.275 321.48 185.748C299.975 204.14 259.542 197.392 243.084 210.88C214.93 240.663 220.323 391.615 224.845 401.732C208.014 442.313 232.816 515.238 233.497 538.27C239.262 553.938 231.273 580.932 255.304 601.928C253.915 585.073 252.308 563.361 250.537 539.255C248.767 515.148 252.914 478.081 258.716 450.908C256.384 438.777 264.158 413.864 258.847 402.605C269.804 384.9 271.715 320.504 263.625 294.226C276.819 321.6 284.125 372.455 285.706 394.301C226.933 468.837 252.51 628.318 288.667 738.331C261.564 827.17 290.097 893.805 292.057 943.607C306.218 950.054 275.964 984.568 281.502 989.358C292.121 1000.62 322.447 997.551 328.811 988.866C332.125 982.957 323.665 969.348 325.961 959.701C325.206 950.054 326.113 930.871 326.113 922.836C326.113 914.8 348.356 787.753 335.283 753.641C339.423 742.673 344.872 722.394 339.598 705.159C343.043 689.782 350.383 531.891 348.615 517.431C348.573 517.095 348.931 512.753 348.921 512.104C348.909 512.529 349.182 515.797 349.153 516.021C347.383 530.503 357.973 672.569 352.699 687.969C347.424 705.181 348.559 741.263 352.699 752.231C338.536 771.525 350.926 906.496 350.926 914.509C350.926 922.545 346.362 946.629 345.61 956.276C347.905 965.923 340.523 982.532 343.837 988.463C350.201 997.148 383.756 997.193 394.384 985.934C399.931 981.144 368.588 946.696 382.748 940.25C384.718 890.447 417.684 824.775 409.104 736.921C445.251 626.907 469.735 467.427 416.427 393.898C418.005 372.052 431.838 319.206 434.131 292.838C429.323 318.131 435.511 387.385 446.459 405.09C441.158 416.349 443.574 436.382 441.232 448.536C447.026 471.747 450.01 512.775 448.234 536.882C446.484 560.989 443.846 583.596 442.465 600.45C466.505 579.477 458.418 552.528 464.188 536.882C464.878 513.827 495.206 440.836 478.365 400.277C482.902 390.138 486.034 255.078 465.494 227.278C449.048 206.873 404.246 201.752 382.748 183.36C379.543 177.887 379.506 166.545 380.975 159.228C400.745 143.603 399.241 111.727 389.847 86.9709C379.03 69.0553 368.114 66.4992 356.935 66.0359V66.0359Z" fill="#F0F0F0" stroke="black"/>
<path d="M299.082 513.469C333.952 525.333 351.389 516.446 351.389 498.629C350.299 521.393 378.63 521.393 399.34 515.439" stroke="black"/>
<path fill-rule="evenodd" clip-rule="evenodd" d="M304.248 175.342C296.071 157.319 294.905 103.248 308.92 77.8029C325.27 51.2967 380.157 47.0573 394.186 75.6832C411.693 111.729 409.35 160.5 402.348 174.281C387.159 172.161 317.094 161.559 304.248 175.342Z" fill="#808080" stroke="black"/>
<path fill-rule="evenodd" clip-rule="evenodd" d="M743.935 66.0241C740.256 65.8742 713.811 65.7936 701.391 86.3794C691.977 111.135 690.481 149.017 710.253 164.642C711.723 171.959 711.686 180.264 708.48 185.736C686.975 204.128 646.542 197.38 630.084 210.868C601.93 240.651 607.323 391.603 611.845 401.721C595.014 442.301 619.816 515.226 620.497 538.258C626.262 553.926 618.273 580.921 642.304 601.916C640.915 585.061 639.308 563.35 637.537 539.243C635.767 515.136 639.914 478.07 645.716 450.897C643.384 438.765 651.158 413.852 645.847 402.594C656.804 384.888 658.715 320.492 650.625 294.214C663.819 321.589 671.125 372.443 672.706 394.289C613.933 468.825 639.51 628.306 675.667 738.319C648.564 827.158 677.097 893.793 679.057 943.596C693.218 950.042 662.964 984.557 668.502 989.347C679.121 1000.61 709.447 997.539 715.811 988.854C719.125 982.945 710.665 969.336 712.961 959.689C712.206 950.042 713.113 930.859 713.113 922.824C713.113 914.788 735.356 787.741 722.283 753.629C726.423 742.662 731.872 722.382 726.598 705.147C730.043 689.77 737.383 531.879 735.615 517.419C735.573 517.084 735.931 512.741 735.921 512.092C735.909 512.517 736.182 515.785 736.153 516.009C734.383 530.491 744.973 672.557 739.699 687.957C734.424 705.17 735.559 741.251 739.699 752.219C725.536 771.513 737.926 906.484 737.926 914.497C737.926 922.533 733.362 946.617 732.61 956.264C734.905 965.912 727.523 982.52 730.837 988.451C737.201 997.136 770.756 997.181 781.384 985.922C786.931 981.132 755.588 946.684 769.748 940.238C771.718 890.435 804.684 824.763 796.104 736.909C832.251 626.896 856.735 467.415 803.427 393.887C805.005 372.041 818.838 319.194 821.131 292.826C816.323 318.119 822.511 387.373 833.459 405.078C828.158 416.337 830.574 436.37 828.232 448.524C834.026 471.735 837.01 512.764 835.234 536.87C833.484 560.977 830.846 583.584 829.465 600.439C853.505 579.466 845.418 552.516 851.188 536.87C851.878 513.816 882.206 440.824 865.365 400.266C869.902 390.126 873.034 255.066 852.494 227.266C836.048 206.861 791.246 201.74 769.748 183.348C766.543 177.875 766.506 166.534 767.975 159.217C787.745 143.591 786.241 111.715 776.847 86.9591C766.03 69.0436 755.114 66.4875 743.935 66.0241V66.0241Z" fill="#F0F0F0" stroke="black"/>
</svg>
