<svg width="266" height="933" viewBox="0 0 266 933" fill="none" xmlns="http://www.w3.org/2000/svg">
<path fill-rule="evenodd" clip-rule="evenodd" d="M138.935 1.02414C135.256 0.874168 108.811 0.793586 96.3915 21.3794C86.9775 46.1352 85.4808 84.0166 105.253 99.6423C106.723 106.959 106.686 115.264 103.48 120.736C81.9746 139.128 41.5421 132.38 25.0835 145.868C-3.06979 175.651 2.32269 326.603 6.84478 336.721C-9.98607 377.301 14.8164 450.226 15.4969 473.258C21.2617 488.926 13.2728 515.921 37.3035 536.916C35.9153 520.061 34.3077 498.35 32.5373 474.243C30.767 450.136 34.9143 413.07 40.7161 385.897C38.3835 373.765 46.1578 348.852 40.8467 337.594C51.8043 319.888 53.7152 255.492 45.6253 229.214C58.8192 256.589 66.1251 307.443 67.7056 329.289C8.93322 403.825 34.5099 563.306 70.6669 673.319C43.5639 762.158 72.097 828.793 74.0572 878.596C88.2177 885.042 57.9636 919.557 63.5016 924.347C74.1213 935.606 104.447 932.539 110.811 923.854C114.125 917.945 105.665 904.336 107.961 894.689C107.206 885.042 108.113 865.859 108.113 857.824C108.113 849.788 130.356 722.741 117.283 688.629C121.423 677.662 126.872 657.382 121.598 640.147C125.043 624.77 132.383 466.879 130.615 452.419C130.573 452.084 130.931 447.741 130.921 447.092C130.909 447.517 131.182 450.785 131.153 451.009C129.383 465.491 139.973 607.557 134.699 622.957C129.424 640.17 130.559 676.251 134.699 687.219C120.536 706.513 132.926 841.484 132.926 849.497C132.926 857.533 128.362 881.617 127.61 891.264C129.905 900.912 122.523 917.52 125.837 923.451C132.201 932.136 165.756 932.181 176.384 920.922C181.931 916.132 150.588 881.684 164.748 875.238C166.718 825.435 199.684 759.763 191.104 671.909C227.251 561.896 251.735 402.415 198.427 328.887C200.005 307.04 213.838 254.194 216.131 227.826C211.323 253.119 217.511 322.373 228.459 340.078C223.158 351.337 225.574 371.37 223.232 383.524C229.026 406.735 232.01 447.764 230.234 471.87C228.484 495.977 225.846 518.584 224.465 535.439C248.505 514.466 240.418 487.516 246.188 471.87C246.878 448.816 277.206 375.824 260.365 335.266C264.902 325.126 268.034 190.066 247.494 162.266C231.048 141.861 186.246 136.74 164.748 118.348C161.543 112.875 161.506 101.534 162.975 94.2166C182.745 78.5909 181.241 46.715 171.847 21.9591C161.03 4.04362 150.114 1.48747 138.935 1.02414Z" fill="#F0F0F0" stroke="black"/>
</svg>
